<svg width="12" height="22" viewBox="0 0 12 22" fill="none" xmlns="http://www.w3.org/2000/svg">
<rect width="12" height="22" fill="black" fill-opacity="0"/>
<rect width="12" height="22" fill="black" fill-opacity="0"/>
<path d="M2.59374 4.2607C2.59374 4.81511 2.59374 7.28967 2.59374 7.28967H0V10.9935H2.59374V22H7.92182V10.9938H11.4972C11.4972 10.9938 11.8321 9.21785 11.9944 7.27601C11.529 7.27601 7.94197 7.27601 7.94197 7.27601C7.94197 7.27601 7.94197 5.12124 7.94197 4.74355C7.94197 4.36504 8.52289 3.8559 9.09706 3.8559C9.67015 3.8559 10.8797 3.8559 12 3.8559C12 3.35162 12 1.60921 12 1.32306e-08C10.5044 1.32306e-08 8.80298 1.32306e-08 8.05299 1.32306e-08C2.46203 -0.000255734 2.59374 3.70726 2.59374 4.2607Z" fill="#E8E7E7" fill-opacity="0.8"/>
</svg>
