<svg width="28" height="28" viewBox="0 0 28 28" fill="none" xmlns="http://www.w3.org/2000/svg">
<path d="M14 0C6.26847 0 0 6.26847 0 14C0 21.7324 6.26847 28 14 28C21.7315 28 28 21.7324 28 14C27.9999 6.26847 21.7314 0 14 0ZM17.9217 24.6653C17.8411 23.5698 17.751 22.2127 17.7458 21.6632C17.7108 21.2414 17.6652 20.1687 16.6468 19.4836C20.6901 19.145 22.6142 16.9102 22.7525 13.9571C22.8681 12.2754 22.1995 10.7966 21.0122 9.60316C21.0726 8.32657 20.9737 6.81363 20.8915 6.14872C19.9797 5.88623 17.8535 7.00884 17.2593 7.48922C16.0063 7.00269 12.9395 6.83209 11.0757 7.48922C9.75444 6.55999 8.25035 5.98599 7.4305 6.14612C6.6736 7.82351 7.16013 9.40901 7.30795 9.59797C6.33316 10.4888 4.97343 11.5851 5.3427 13.882C5.93505 17.2498 8.30456 19.0664 12.1195 19.5108C11.3058 19.6771 11.1684 20.2843 11.1001 20.5477C8.53812 21.6047 7.80582 19.895 7.48201 19.4496C6.40669 18.1187 5.44151 18.5046 5.38201 18.5255C5.32425 18.5465 5.28052 18.6305 5.28667 18.6708C5.34088 18.9578 5.92631 19.2492 5.95514 19.2727C6.74876 19.8642 7.04277 20.9326 7.22385 21.2371C8.36223 23.1087 11.0083 22.3326 11.0336 22.3484C11.0354 22.512 11.0153 23.8893 10.9995 24.9612C6.17486 23.6433 2.62498 19.2421 2.62498 14C2.62498 7.71749 7.71749 2.62507 13.9999 2.62507C20.2823 2.62507 25.3749 7.71749 25.3749 14C25.3749 18.9026 22.2687 23.0666 17.9217 24.6653Z" fill="#E8E7E7" fill-opacity="0.8"/>
</svg>
