<svg width="24" height="27" viewBox="0 0 24 27" fill="none" xmlns="http://www.w3.org/2000/svg">
<rect width="24" height="27" fill="black" fill-opacity="0"/>
<path d="M18.8887 10.1357H22.457V11.6738H18.8887V15.7168H17.2539V11.6738H13.6855V10.1357H17.2539V6.40039H18.8887V10.1357Z" fill="#E8E7E7" fill-opacity="0.8"/>
<rect width="14" height="21" fill="black" fill-opacity="0" transform="translate(0 6)"/>
<rect width="14" height="21" fill="black" fill-opacity="0" transform="translate(0 6)"/>
<path d="M14 6H8.22075C6.70635 6 4.79876 6.2198 3.20012 7.51433C1.9923 8.53493 1.40477 9.93913 1.40477 11.2075C1.40477 13.3568 3.08812 15.5349 6.06163 15.5349C6.34211 15.5349 6.6494 15.5069 6.96025 15.4801C6.81978 15.8098 6.67811 16.0854 6.67811 16.5546C6.67811 17.4091 7.12731 17.9317 7.51979 18.428C6.25882 18.5104 3.90132 18.6478 2.16102 19.6946C0.505907 20.6613 2.14938e-08 22.0652 2.14938e-08 23.0578C-0.000237271 25.0974 1.9643 27 6.03268 27C10.8583 27 13.412 24.382 13.412 21.7897C13.412 19.8896 12.2898 18.9514 11.0552 17.9317L10.0448 17.1606C9.73752 16.9121 9.3168 16.5821 9.3168 15.9752C9.3168 15.3693 9.73752 14.9826 10.1015 14.6245C11.2794 13.7154 12.4585 12.7508 12.4585 10.7115C12.4585 8.61637 11.1107 7.51387 10.4662 6.9905H12.2065L14 6ZM11.5331 22.8651C11.5331 24.5736 10.1015 25.8408 7.40779 25.8408C4.40652 25.8408 2.46997 24.4352 2.46997 22.4796C2.46997 20.5213 4.2658 19.8621 4.88229 19.6414C6.06139 19.255 7.57603 19.2001 7.82803 19.2001C8.10898 19.2001 8.24922 19.2001 8.47465 19.227C10.6074 20.7149 11.5331 21.46 11.5331 22.8651ZM9.28809 13.9914C8.83889 14.4315 8.08075 14.7626 7.37907 14.7626C4.96724 14.7626 3.87379 11.7029 3.87379 9.85723C3.87379 9.14043 4.01427 8.39703 4.49028 7.8179C4.93947 7.26677 5.72444 6.90813 6.45435 6.90813C8.78266 6.90813 9.98976 9.9949 9.98976 11.9785C9.98976 12.4755 9.93257 13.3565 9.28809 13.9914Z" fill="#E8E7E7" fill-opacity="0.8"/>
</svg>
