<svg width="15" height="14" viewBox="0 0 15 14" fill="none" xmlns="http://www.w3.org/2000/svg">
<rect width="15" height="14" fill="black" fill-opacity="0"/>
<rect width="15" height="14" fill="black" fill-opacity="0"/>
<path d="M15 8.58339V14H11.785V8.94616C11.785 7.67659 11.32 6.81017 10.1563 6.81017C9.26793 6.81017 8.73927 7.39408 8.5067 7.95891C8.42188 8.16084 8.40005 8.44189 8.40005 8.72455V14H5.18398C5.18398 14 5.2273 5.44046 5.18398 4.55362H8.39974V5.89261C8.39322 5.90262 8.38474 5.91342 8.3786 5.92313H8.39974V5.89261C8.82698 5.24987 9.58999 4.3317 11.2979 4.3317C13.4138 4.33167 15 5.68183 15 8.58339ZM1.81984 0C0.71963 0 0 0.704868 0 1.63179C0 2.53852 0.69881 3.26478 1.77716 3.26478H1.79864C2.92016 3.26478 3.61764 2.53865 3.61764 1.63179C3.59651 0.704868 2.92016 0 1.81984 0ZM0.191006 14H3.40585V4.55362H0.191006V14Z" fill="#E8E7E7" fill-opacity="0.8"/>
</svg>
