<svg width="31" height="21" viewBox="0 0 31 21" fill="none" xmlns="http://www.w3.org/2000/svg">
<rect width="31" height="21" fill="black" fill-opacity="0"/>
<rect width="31" height="21" fill="black" fill-opacity="0"/>
<path d="M27.4876 9.33626C29.2287 9.19501 30.4097 8.41668 30.8642 7.36061C30.2362 7.73999 28.2866 8.1536 27.2099 7.7597C27.1571 7.51093 27.0982 7.27464 27.0403 7.06132C26.2199 4.09899 23.4109 1.71242 20.4676 2.00073C20.7058 1.90619 20.9473 1.81816 21.1881 1.73914C21.512 1.62504 23.4128 1.32092 23.1135 0.66117C22.8613 0.0808658 20.5389 1.09973 20.1016 1.2329C20.6789 1.01943 21.6335 0.65224 21.7358 0C20.8514 0.119279 19.9833 0.53041 19.3125 1.12822C19.5547 0.871874 19.7384 0.559468 19.7774 0.223249C17.4187 1.70498 16.0409 4.69226 14.9258 7.59003C14.0503 6.75564 13.2743 6.09858 12.5781 5.73373C10.6251 4.70388 8.29003 3.62938 4.62445 2.29131C4.51194 3.48388 5.22424 5.06958 7.27675 6.1241C6.83205 6.06556 6.01885 6.19618 5.36846 6.34933C5.63333 7.71554 6.49835 8.84114 8.84016 9.38544C7.76995 9.4549 7.21686 9.69437 6.71558 10.2105C7.20302 11.1607 8.39244 12.279 10.5321 12.0495C8.15323 13.0577 9.56212 14.9248 11.4978 14.6464C8.19568 18.0003 2.98953 17.7538 0 14.9486C7.80548 25.4074 24.7728 21.1339 27.3013 11.0601C29.1958 11.076 30.3095 10.4148 31 9.68587C29.9085 9.86801 28.3265 9.67977 27.4876 9.33626Z" fill="#E8E7E7" fill-opacity="0.8"/>
</svg>
