<svg width="122" height="122" viewBox="0 0 122 122" fill="none" xmlns="http://www.w3.org/2000/svg">
<rect width="61" height="61" fill="black" fill-opacity="0" transform="scale(2)"/>
<circle cx="61" cy="61" r="61" fill="#25CF16"/>
<rect width="40" height="40" fill="black" fill-opacity="0" transform="translate(22 22) scale(2)"/>
<rect width="40" height="40" fill="black" fill-opacity="0" transform="translate(22 22) scale(2)"/>
<path d="M102 60.9698C102 82.4924 84.4187 99.9396 62.7271 99.9396C55.8409 99.9396 49.3716 98.1796 43.7431 95.0907L22 102L29.0889 81.0916C25.5129 75.2196 23.4533 68.3324 23.4533 60.9698C23.4533 39.4471 41.0364 22 62.7271 22C84.4204 22 102 39.4471 102 60.9698ZM62.7271 28.2062C44.5191 28.2062 29.7084 42.904 29.7084 60.9698C29.7084 68.1387 32.0453 74.7778 35.9982 80.1787L31.8729 92.3467L44.5618 88.3138C49.7751 91.7369 56.0204 93.7333 62.728 93.7333C80.9333 93.7333 95.7467 79.0373 95.7467 60.9716C95.7467 42.9058 80.9342 28.2062 62.7271 28.2062ZM82.5591 69.9449C82.3164 69.5476 81.6756 69.3076 80.7138 68.8302C79.7502 68.3529 75.016 66.0409 74.136 65.7236C73.2533 65.4053 72.6098 65.2453 71.9689 66.2009C71.328 67.1573 69.4827 69.3076 68.92 69.9449C68.3582 70.584 67.7973 70.664 66.8338 70.1858C65.872 69.7084 62.7707 68.6987 59.0933 65.4453C56.232 62.9138 54.2996 59.7884 53.7378 58.8311C53.1769 57.8756 53.6791 57.3591 54.16 56.8836C54.5938 56.4551 55.1236 55.768 55.6044 55.2107C56.0871 54.6524 56.2471 54.2551 56.5662 53.6169C56.8889 52.9796 56.728 52.4222 56.4862 51.9431C56.2462 51.4658 54.3191 46.7653 53.5173 44.8524C52.7156 42.9413 51.9147 43.2596 51.352 43.2596C50.7911 43.2596 50.1484 43.1796 49.5067 43.1796C48.8649 43.1796 47.8213 43.4187 46.9387 44.3742C46.0569 45.3307 43.5707 47.6418 43.5707 52.3413C43.5707 57.0418 47.0187 61.5831 47.5013 62.2196C47.9822 62.856 54.1591 72.8151 63.9458 76.64C73.7333 80.4631 73.7333 79.1876 75.4987 79.0276C77.2622 78.8684 81.1929 76.7173 81.9982 74.488C82.7982 72.2551 82.7982 70.3431 82.5591 69.9449Z" fill="white"/>
</svg>
